<?xml version="1.0" encoding="utf-8"?>
<!-- Generator: Adobe Illustrator 23.0.3, SVG Export Plug-In . SVG Version: 6.00 Build 0)  -->
<svg version="1.1" id="Capa_1" xmlns="http://www.w3.org/2000/svg" xmlns:xlink="http://www.w3.org/1999/xlink" x="0px" y="0px"
	 viewBox="0 0 1200 1200" enable-background="new 0 0 1200 1200" xml:space="preserve">
<g>
	<path fill="#C7E5E5" d="M1078.954,1098.111c4.979,13.121-3.664,23.298-14.468,28.841l-29.937-55.803
		C1059.726,1076.191,1072.472,1081.044,1078.954,1098.111z M944.863,805.661c1.19,1.284,2.286,2.568,3.257,3.914l75.375,23.079
		l-35.918-89.937L944.863,805.661z M1016.167,888.708l-94.477-16.284c-0.47,1.816-0.877,3.633-1.284,5.48l22.014,36.388
		l72.087-21.607C1015.071,891.338,1015.635,889.992,1016.167,888.708z M954.258,639.347l-37.703,114.832l93.444-56.273
		C999.195,683.971,980.249,661.549,954.258,639.347z M971.011,1020.199l4.134-7.453c0.25-8.205,1.785-16.879,4.165-25.741
		c3.946-14.906,12.557-38.142,21.545-60.814l-58.434-11.9l27.996,105.563L971.011,1020.199z M929.394,481.926l18.726,16.221
		l11.086-16.221C953.976,482.052,940.26,482.24,929.394,481.926z M889.592,1047.506l38.517,32.317l41.931,26.242l31.033-32.223
		l-50.949-15.971l-52.922-16.628c-0.157,0.313-0.313,0.626-0.47,0.939C896.732,1042.183,893.1,1042.621,889.592,1047.506z
		 M881.106,592.155l-65.448,43.935h-0.031l26.179,60.25L862.192,653l26.868-57.087C886.461,594.629,883.799,593.376,881.106,592.155
		z M823.987,105.521c4.729,5.48,8.862,9.958,10.866,12.088l8.612-30.626L823.987,105.521z M736.024,429.85l35.449,89.404
		l0.031,0.031l16.753-53.643L736.024,429.85z M742.882,519.786l-19.165,86.93l1.033,0.219l51.075-85.866l-4.321-1.785h-0.031
		L742.882,519.786z M723.717,606.717l-27.526,125.009l75.031-14.906L724.75,606.936L723.717,606.717z M813.09,386.197l11.273-36.137
		l-85.646,9.927c-0.658,2.505-1.347,4.979-2.004,7.453l76.346,18.758H813.09z M651.035,269.862l12.056,5.731l31.973-30.877
		l-6.012-2.474c-1.691,1.065-3.445,2.129-5.292,3.257C676.65,249.789,663.811,259.308,651.035,269.862z"/>
	<path fill="#ABD9D9" d="M1096.741,288.682l13.873-8.486c0,0.063,0,0.094,0,0.125l-38.204,68.517l-17.662-34.478l19.666-12.025
		L1096.741,288.682z M1091.261,284.673l5.48,4.008l13.873-8.486c0.407-10.209-0.689-20.543-4.572-29.53
		c-2.599-5.981-6.326-6.451-9.676-5.136l-4.917,38.893L1091.261,284.673z M1092.482,245.467c-2.85-3.977-6.983-3.1-8.8-1.66
		c-0.188,0.125-0.282,0.251-0.438,0.376c-1.816-3.257-4.478-5.543-8.392-5.073c-2.912,0.376-4.666,2.286-5.699,4.885
		c-1.096-0.939-2.286-1.785-3.695-2.537c-2.724-1.409-6.012-0.219-6.921,2.818c-1.534,5.198-2.223,9.833-2.161,14.937l10.553,7.703
		l1.002-1.378l24.801-19.76C1092.639,245.655,1092.576,245.561,1092.482,245.467z M1054.747,314.36l19.666-12.025l-18.037-43.121
		c-1.347,0.689-2.787,1.754-4.321,3.319C1040.155,274.434,1048.171,298.859,1054.747,314.36z M1083.369,383.629l-42.056-33.601
		c-6.513,15.971-13.152,31.753-16.66,42.338L1083.369,383.629z M989.487,392.272l35.167,0.094l-22.515-56.774L989.487,392.272z
		 M989.487,392.272l-3.1,18.413l-7.923,47.035l46.19-65.354L989.487,392.272z M1020.551,136.804l22.014-17.881
		c-6.326-9.019-19.008-12.088-28.653-16.159c-3.194-1.347-6.357-2.693-9.488-3.977L1020.551,136.804z M981.502,69.101
		c-3.758-4.384-8.017-7.829-12.62-10.522l5.104,55.365l30.062-15.313c-1.378-0.564-2.787-1.159-4.165-1.691L981.502,69.101z
		 M986.7,165.551c1.002-3.319,1.973-6.764,4.635-9.175c3.57-3.257,6.795-2.067,11.086-1.942c6.67,0.157,13.998,0.564,20.918-0.376
		l-49.352-40.114l11.273,45.72L986.7,165.551z M981.909,261.219l-33.225,47.473l53.455,26.9l-19.854-73.966
		C982.159,261.5,982.034,261.375,981.909,261.219z M933.715,78.214l14.969,68.079l25.302-32.348L933.715,78.214z M893.757,136.804
		l42.808,44.499l12.119-35.01L893.757,136.804z M824.363,350.059l122.88-40.897l0.376-1.66l-36.576-41.398L824.363,350.059z
		 M918.84,232.409l-7.797,33.695l31.19-30.188L918.84,232.409z M893.757,176.386l25.083,56.022l17.724-51.106L893.757,176.386z
		 M853.298,189.758c-0.783,0.877-1.597,1.722-2.474,2.505c-6.482,0.689-14.154,1.566-15.783,1.534
		c-6.921-0.094-14.092,0.125-21.294,0.658l36.137,79.665l26.618-79.258L853.298,189.758z M813.09,386.197h-0.031l-24.801,79.446
		l-16.753,53.643l81.826-76.565l-28.966-92.661L813.09,386.197z M741.41,349.965c-0.908,3.351-1.816,6.701-2.693,10.021
		l85.646-9.927l25.49-75.876L741.41,349.965z M724.75,606.936l46.471,109.884l44.405-80.73h0.031l31.096-56.555L724.75,606.936z
		 M680.628,520.851c-3.006,2.443-6.357,5.198-9.896,8.079l12.495,53.361l59.655-62.505L680.628,520.851z M712.631,452.616
		c-2.85,8.674-5.574,16.847-8.017,24.206c21.701,13.81,65.48,41.586,66.857,42.432l-35.449-89.404l-22.797,20.668l-1.378,1.253
		C712.13,452.052,712.381,452.334,712.631,452.616z M615.868,570.798c-1.315,1.848-2.599,3.82-3.852,5.887l7.109,66.576
		l53.737-56.336L615.868,570.798z"/>
	<path fill="#3A6060" d="M1090.478,377.522c-3.977,17.63-8.893,35.041-15.063,52.108c-2.255,6.2-4.635,13.121-7.39,20.167
		l-3.194-46.221l18.538-19.948L1090.478,377.522z M1028.975,442.188l3.664,41.962l32.192-80.573L1028.975,442.188z M1004.08,501.749
		c7.328,3.382,15.25,4.321,23.58,1.002c2.067-0.814,4.008-1.848,5.887-2.944l-3.695-9.77L1004.08,501.749z M910.479,791.475
		c8.706,4.885,17.943,10.929,24.77,17.568l-18.351-37.108L910.479,791.475z M863.945,79.78c-5.637,7.829-8.768,17.286-9.896,27.996
		c-0.595,5.543-1.722,14.06-1.44,22.171c5.167-6.357,20.01-25.835,30.25-39.363l-15.626-15.939
		C866.012,76.335,864.885,78.057,863.945,79.78z M775.825,521.07l81.2,33.319c2.443-5.919,5.198-12.651,8.204-19.948l-28.246-42.557
		l-65.48,27.401L775.825,521.07z M712.287,781.579c5.01-5.762,9.708-11.493,13.872-17.035c0,0,26.555-30.877,47.943-44.874
		l-2.881-2.85l-75.031,14.906L712.287,781.579z M708.842,242.555l30.845,65.855l13.559-48.288L708.842,242.555z M678.404,356.353
		l6.545,64.947c1.503,1.754,3.038,3.539,4.603,5.355l40.271-34.384L678.404,356.353z M659.928,834.001l-50.167,18.351l10.021,15.407
		c7.202-5.919,14.311-11.774,20.261-16.66C645.649,846.558,652.475,840.702,659.928,834.001z M596.39,881.474l-30.845-43.465v77.536
		c3.852-3.413,8.612-8.33,15.25-15.438c0,0,7.703-6.42,18.131-15.063L596.39,881.474z M283.648,961.421
		c0,2.067-7.046,17.787-12.526,29.749c2.912-1.44,7.516-3.539,14.154-6.263l-1.065-23.518L283.648,961.421z"/>
	<path fill="#8FCCCC" d="M987.577,742.718l78.162,28.81c-0.094,10.052-4.885,24.144-10.96,37.985L987.577,742.718z
		 M1020.551,136.804l6.983,16.472c1.221-0.282,2.443-0.626,3.601-1.033c12.745-4.541,19.384-19.572,12.463-31.691
		c-0.313-0.564-0.658-1.096-1.033-1.628L1020.551,136.804z M1052.712,1131.086c3.852-0.752,7.954-2.161,11.774-4.134l-29.937-55.803
		c-0.564-0.094-1.127-0.219-1.691-0.344c-2.13-0.407-4.165-0.845-6.169-1.347c-0.626-0.532-1.315-1.033-1.942-1.566l4.603,64.728
		C1037.18,1132.871,1045.04,1132.558,1052.712,1131.086z M1019.33,710.494c-1.002-1.409-2.756-3.852-5.104-7.046l-26.649,39.269
		l78.162,28.81c0.031-4.729-0.908-8.612-3.319-11.117C1046.042,743.219,1028.192,722.926,1019.33,710.494z M1000.854,926.192
		c4.666-11.743,9.394-23.298,13.653-33.507l-72.087,21.607L1000.854,926.192z M948.684,146.293l36.576,13.371l-11.273-45.72
		L948.684,146.293z M949.466,515.684c4.729,5.48,8.831,9.958,10.866,12.119l8.612-30.657L949.466,515.684z M933.715,78.214
		l40.271,35.73l-5.104-55.365c-0.251-0.157-0.501-0.282-0.72-0.407L933.715,78.214z M923.005,449.484
		c-5.95,7.359-10.71,13.685-12.996,16.754l43.152,0.658L923.005,449.484z M893.131,136.804h0.626l54.926,9.488l-56.336-57.494
		L893.131,136.804z M889.06,595.913L862.192,653l86.398-18.382C931.46,620.589,911.513,606.967,889.06,595.913z M892.786,983.373
		l31.816-64.916l-24.05-39.801C896.419,896.693,897.139,957.601,892.786,983.373z M950.124,1057.871l-40.584-58.434
		c-3.382,16.597-7.516,32.286-12.338,41.806L950.124,1057.871z M866.169,1052.266c-4.979,7.202-9.614,23.455-3.382,60.156
		c0,0-4.008,10.929,7.015,16.816l36.983-42.933L866.169,1052.266z M824.363,350.059l28.966,92.661l34.071-31.879L824.363,350.059z
		 M820.167,1131.869l20.95,18.131l12.401-18.131C847.693,1131.994,832.349,1132.213,820.167,1131.869z M813.434,1062.694
		c4.854,2.443,12.15,6.42,22.234,12.463l15.47-12.902C843.872,1062.694,832.223,1062.913,813.434,1062.694z M813.747,194.455
		c-6.013,0.438-12.025,1.127-18.006,2.035l-42.494,63.632l96.607,14.029h0.031v-0.031L813.747,194.455z M788.257,465.643
		l24.801-79.446l-77.035,43.653L788.257,465.643z M729.823,392.272l-16.597,58.246l22.797-20.668l-5.104-37.735L729.823,392.272z
		 M730.105,386.197l0.814,5.919l5.104,37.735l77.035-43.653l-76.346-18.758c-1.879,7.077-3.695,13.966-5.417,20.449
		C730.888,387.324,730.481,386.76,730.105,386.197z M612.58,311.26c-5.637,20.135,5.825,40.553,18.914,58.152l27.87-85.772
		L612.58,311.26z M592.194,376.332c4.729,5.48,8.831,9.958,10.866,12.088l8.612-30.626L592.194,376.332z M580.326,280.321
		l18.695,16.19l11.086-16.19C604.908,280.415,591.192,280.634,580.326,280.321z M696.191,731.726l-35.323-22.296l8.549,10.271
		l-31.565-19.916c-2.192,13.027-9.488,52.609-16.096,88.152c-6.294,34.039-11.994,64.415-11.994,64.415L696.191,731.726z
		 M621.755,787.936l-42.119-25.96l30.125,90.375C609.762,852.351,615.461,821.976,621.755,787.936z M572.121,338.41l18.695,16.221
		l11.117-16.221C596.703,338.535,582.987,338.723,572.121,338.41z M536.046,867.977l27.369,49.384
		c0.689-0.564,1.378-1.159,2.129-1.816v-77.536l-51.294-16.628c-0.157,0.031-1.346,0.438-3.382,1.159l25.177,45.407V867.977z
		 M513.813,927.538l22.234-59.561v-0.031l-161.742-3.413c-1.66,0.532-3.288,1.065-4.885,1.66l140.949,62.004
		C511.558,927.946,512.685,927.726,513.813,927.538z M333.752,889.491c-1.127,1.127-2.286,2.286-3.476,3.507
		c0,0-15.25,7.202-34.948,15.438l48.006,28.81l11.837-42.995L333.752,889.491z M244.974,1009.928l1.159-53.11
		c-33.851-4.04-80.667-9.52-95.824-10.96c0.031,1.096,0.031,2.255,0.063,3.445l37.641,28.371l53.423,40.302
		C242.813,1015.189,244.034,1012.465,244.974,1009.928z"/>
	<path fill="#568F8F" d="M1072.409,348.838l38.204-68.517c-0.971,23.267-9.802,45.876-11.649,50.354
		c-0.877,6.357-1.91,12.683-2.975,19.008L1072.409,348.838z M1067.931,265.54l-1.002,1.378l24.332,17.756l0.188-0.251l4.917-38.893
		c-0.939,0.376-1.848,0.877-2.662,1.44c-0.313-0.407-0.658-0.783-0.971-1.19L1067.931,265.54z M1024.654,392.366l4.322,49.822
		l35.856-38.611l18.538-19.948L1024.654,392.366z M1042.221,347.742l30.188,1.096l-17.662-34.478
		C1051.647,324.13,1047.013,335.936,1042.221,347.742z M979.153,469.995l-1.691,9.989c5.01,6.451,10.898,12.964,17.505,17.161
		l20.637-9.395L979.153,469.995z M1002.138,335.592l22.515,56.774c-1.002-25.616-5.856-41.304-12.776-69.425L1002.138,335.592z
		 M925.604,812.425l-18.413,32.849c-2.129,5.511-4.196,11.43-5.981,17.662l91.753-29.874L925.604,812.425z M947.243,309.162
		l-17.505,76.377l59.749,6.733l-40.803-83.58L947.243,309.162z M949.717,221.668c2.537-3.1,5.01-6.326,7.547-9.614
		c8.111-10.428,18.1-20.323,24.05-32.348c2.035-4.165,3.601-8.518,5.01-12.902c0.125-0.438,0.25-0.846,0.376-1.253l-1.44-5.887
		l-66.419,72.745L949.717,221.668z M927.546,50.124l6.169,28.09l34.446-20.042C955.635,51.095,940.792,49.498,927.546,50.124z
		 M948.684,308.692l33.225-47.473c-11.43-11.68-25.303-21.451-40.052-30.72c2.756-2.756,5.324-5.731,7.86-8.831l-30.877,10.741
		l23.392,3.507l6.075,68.58L948.684,308.692z M899.394,452.804c8.205-19.227,15.908-36.952,21.858-49.885
		c3.57-7.735,6.482-13.747,8.486-17.38L887.4,410.841L899.394,452.804z M860.438,178.234c0,0.438-0.031,0.908-0.031,1.347
		c0,0.031-0.031,0.063-0.031,0.063l16.127,15.219l42.338,37.547l-25.083-56.022L860.438,178.234z M883.642,783.615
		c0.752,0.407,1.472,0.846,2.223,1.284c0,0,5.292,2.067,12.338,5.574l-20.73-71.837L883.642,783.615z M865.229,534.442
		c8.079-19.572,17.881-43.152,27.463-65.855l-55.709,23.298L865.229,534.442z M859.405,131.543c0.031,0.376,0.063,0.783,0.125,1.19
		l34.227,43.653l-0.626-39.582l-0.783-48.006C892.348,88.798,863.538,127.003,859.405,131.543z M846.753,579.504v0.031
		l-31.096,56.555l65.448-43.935C870.208,587.207,858.747,582.917,846.753,579.504z M775.825,521.07l70.928,58.465v-0.031
		c0,0,4.008-9.833,10.271-25.115L775.825,521.07z M774.103,719.67c0.689-0.438,1.378-0.877,2.067-1.284
		c0,0,32.818,7.985,95.98,43.371l-30.344-65.417l-26.179-60.25l-44.405,80.73L774.103,719.67z M689.552,426.656
		c6.294,7.296,13.403,15.282,22.296,25.115l1.378-1.253l16.597-58.246L689.552,426.656z M706.368,343.139l-27.964,13.215
		l51.419,35.918l1.096-0.157l-0.814-5.919C719.114,370.664,714.917,357.074,706.368,343.139z M609.762,852.351l50.167-18.351
		c16.534-14.812,36.137-33.82,52.359-52.421l-16.096-49.853L609.762,852.351z M708.623,341.322c1.221-1.002,2.505-2.098,3.132-2.505
		c8.173-5.355,15.344-9.864,23.361-14.154l4.572-16.221l-66.356-31.565l35.01,64.133L708.623,341.322z M704.615,476.822
		c-6.607,19.885-11.242,33.664-11.242,33.664s-5.23,4.259-12.745,10.365l62.254-1.065l28.591-0.501v-0.031
		C770.094,518.408,726.316,490.632,704.615,476.822z M660.868,709.43l-53.737-64.352l-24.175,9.019
		c0.125,0.877-1.065,4.916-3.507,8.799l54.801,34.603c2.724-1.347,4.29-2.098,4.29-2.098v-0.031L660.868,709.43z M584.835,646.205
		l22.86-8.549l-6.764-63.319C590.44,594.003,582.768,619.838,584.835,646.205z M598.927,885.044
		c6.326-5.261,13.622-11.305,20.856-17.286l-10.021-15.407l-13.372,29.123L598.927,885.044z M537.362,749.106
		c-4.541,7.891-8.674,15.344-12.119,21.827s-6.138,11.994-7.766,16.002c-6.357,15.814-11.43,25.897-14.593,31.597l63.006-51.858
		L537.362,749.106z M513.813,927.538c33.726-6.326,37.327-0.188,49.603-10.177l-27.369-49.384L513.813,927.538z M493.239,721.549
		c-6.545,8.017-11.774,14.937-14.311,18.288l45.281,4.509L493.239,721.549z M443.636,700.129l71.398,7.923l-20.637-22.265
		L443.636,700.129z M419.523,951.4c13.027-2.599,30.188-6.795,54.958-14.123c13.966-4.134,25.24-6.889,34.478-8.799l-153.788-34.227
		L419.523,951.4z M342.958,862.341c-0.063-0.063-0.094-0.125-0.157-0.219c-0.063-0.094-0.157-0.188-0.188-0.313
		c-0.031-0.063-0.063-0.094-0.063-0.157c-8.236,3.1-15.751,7.516-24.833,16.159l121.533,27.025l-95.761-42.119
		c-0.063-0.031-0.063-0.063-0.125-0.094C343.209,862.529,343.083,862.466,342.958,862.341z M284.211,961.39l1.065,23.518
		c9.614-3.914,23.58-9.113,43.152-15.376c-8.987-11.43-29.593-37.703-44.405-56.461c-0.658,0.282-1.315,0.532-1.973,0.783
		L284.211,961.39z M244.974,1009.928c0.031-0.063,0.063-0.157,0.094-0.219c0,0,12.87,0.282,18.82-6.639l-17.756-46.252
		L244.974,1009.928z M225.402,887.173l-35.73,14.499h52.515L225.402,887.173z M162.459,877.059
		c4.854,2.443,12.15,6.42,22.202,12.463l15.47-12.902C192.866,877.09,181.248,877.309,162.459,877.059z M144.39,957.851
		l39.457,96.575l-4.321-70.052L144.39,957.851z M128.513,1018.759c-5.23,19.948-14.248,65.793-2.161,93.099l49.979-43.747
		l-45.156-110.51C131.676,976.233,132.678,1002.694,128.513,1018.759z M137.72,929.073c-0.971,0.877-0.908,5.48-0.407,12.213
		l73.34-20.104C200.131,916.39,165.622,903.77,137.72,929.073z"/>
	<path fill="#73BFBF" d="M1072.409,348.838l23.58,0.846c-1.597,9.332-3.413,18.601-5.511,27.839l-7.109,6.106l-42.056-33.601
		c0.313-0.752,0.595-1.503,0.908-2.286L1072.409,348.838z M1091.261,284.673l-24.332-17.756l-10.553-7.703l18.037,43.121
		l22.328-13.653L1091.261,284.673z M1032.639,484.15l4.384,11.618c14.906-9.864,24.113-28.309,31.002-45.97l-3.194-46.221
		L1032.639,484.15z M1023.495,832.654l24.081-7.829c2.443-4.916,4.916-10.083,7.202-15.313l-67.202-66.795L1023.495,832.654z
		 M1024.654,392.366l-46.19,65.354l54.175,26.43l-3.664-41.962L1024.654,392.366z M1014.57,1059.813l-13.497,14.029l-31.033,32.223
		l39.958,25.052c6.42,0.689,12.87,1.284,19.353,1.503l-4.603-64.728C1021.428,1065.136,1018.046,1062.443,1014.57,1059.813z
		 M1004.424,98.788c-0.125-0.063-0.251-0.094-0.376-0.157l-30.062,15.313l49.352,40.114c1.409-0.219,2.85-0.438,4.196-0.783
		l-6.983-16.472L1004.424,98.788z M948.684,308.692l40.803,83.58l12.651-56.68L948.684,308.692z M917.713,1089.124l-36.169,41.993
		c4.791,1.409,11.336,2.129,20.323,1.597c40.428-2.38,52.108-1.347,85.803,2.536c1.503,0.157,3.006,0.344,4.509,0.501
		L917.713,1089.124z M948.684,146.293l-12.119,35.01l-17.724,51.106l66.419-72.745L948.684,146.293z M1002.138,335.592l9.739-12.651
		c-1.096-4.509-2.255-9.301-3.445-14.561c-4.384-19.04-13.81-34.039-26.148-46.753L1002.138,335.592z M928.705,403.796
		c9.019,23.079,19.541,45.626,33.914,65.855c1.754,2.505,3.727,5.292,5.825,8.173l1.816-10.616v-0.031l9.708-57.588L928.705,403.796
		z M975.145,1012.747l-4.134,7.453l-20.887,37.672l50.949,15.971c0,0-4.196-13.685-8.768-29.06c-1.879-1.033-3.758-2.004-5.699-2.85
		c-0.47-3.82-0.626-7.672-0.971-11.305c-0.783-7.954-4.603-9.582-10.24-9.207C975.113,1018.602,975.051,1015.69,975.145,1012.747z
		 M970.416,1019.855l-58.997-30.156c-0.595,3.257-1.221,6.514-1.879,9.739l40.584,58.434l20.887-37.672L970.416,1019.855z
		 M914.55,971.066c-0.908,5.981-1.973,12.307-3.131,18.632l58.997,30.156l-27.996-105.563L914.55,971.066z M862.192,653
		l39.739,123.851c1.942,0.971,4.008,2.004,6.169,3.1l8.455-25.772l37.703-114.832c-1.848-1.566-3.727-3.163-5.668-4.729L862.192,653
		z M927.546,50.124c-19.384,0.908-35.292,6.514-35.292,6.514c-7.516,4.697-12.996,9.582-17.067,14.655l17.161,17.505l56.336,57.494
		l-14.969-68.079L927.546,50.124z M942.233,235.916l-31.19,30.188l36.576,41.398l0.689-3.006L942.233,235.916z M824.363,350.059
		l63.037,60.782l42.338-25.302l17.505-76.377L824.363,350.059z M944.863,805.661l42.714-62.943l26.649-39.269
		c-1.253-1.66-2.662-3.507-4.228-5.543l-93.444,56.273l22.891,46.221C941.387,802.122,943.203,803.876,944.863,805.661z
		 M893.131,136.804l0.626,39.582l42.808,4.916l-42.808-44.499H893.131z M1029.539,857.424c0,0,8.987-14.593,18.037-32.599
		l-24.081,7.829l-99.832,32.536c-0.689,2.38-1.347,4.791-1.973,7.234l94.477,16.284
		C1023.84,870.451,1029.539,857.424,1029.539,857.424z M876.503,194.862l-26.618,79.258v0.031h-0.031v0.031l-25.49,75.876
		l86.68-83.955l7.797-33.695L876.503,194.862z M853.33,442.72l-81.826,76.565l65.48-27.401l55.709-23.298
		c2.255-5.324,4.509-10.616,6.701-15.783L887.4,410.841L853.33,442.72z M855.365,172.629l25.146-1.378l-25.24-32.223
		C856.085,142.284,855.616,167.305,855.365,172.629z M841.806,696.34l30.344,65.417c1.127,0.626,2.317,1.284,3.476,1.942
		L862.192,653L841.806,696.34z M837.422,1020.826c-4.76,7.39-8.549,13.716-10.365,16.785l38.58-0.47L837.422,1020.826z
		 M829.843,1093.132l-48.883,19.854h71.868L829.843,1093.132z M753.247,260.123l-13.559,48.288v0.031l-4.572,16.221
		c4.666-2.505,9.582-4.916,15.219-7.359c-3.069,10.96-6.044,21.952-8.925,32.662l108.444-75.782v-0.031L753.247,260.123z
		 M775.825,521.07l-51.075,85.866l122.003-27.401L775.825,521.07z M815.939,133.015l18.695,16.221l11.085-16.221
		C840.522,133.14,826.806,133.328,815.939,133.015z M805.606,152.117c-6.013,7.422-10.835,13.81-13.152,16.91l43.59,0.626
		L805.606,152.117z M768.09,1065.293l4.603,19.916l37.265-0.501L768.09,1065.293z M768.748,202.566
		c-5.919,1.816-10.96,3.664-15.501,5.511v52.045l42.494-63.632C786.472,197.9,777.328,199.904,768.748,202.566z M683.227,582.291
		l-59.624,62.505l72.588,86.93l27.526-125.009l19.165-86.93L683.227,582.291z M708.842,242.555l-35.511,34.321l66.356,31.565v-0.031
		L708.842,242.555z M708.936,223.484l-2.38,8.987l31.879,12.62l-12.839-32.599C720.21,215.749,715.105,219.319,708.936,223.484z
		 M642.11,364.621l53.392-25.302l-28.309-51.826L642.11,364.621z M639.793,379.276c3.664,4.666,7.296,9.081,10.584,13.184
		c9.645,12.088,17.098,21.388,25.334,31.158l-5.919-58.559L639.793,379.276z M626.327,551.947
		c-3.727,3.038-7.641,7.202-11.493,12.213l55.24,15.657l-12.526-53.361C647.402,534.724,635.44,544.462,626.327,551.947z
		 M640.732,273.181c-12.933,10.929-25.177,22.515-30.814,30.438l42.307-24.989L640.732,273.181z M557.998,736.298
		c-1.816,3.069-3.57,6.106-5.292,9.081l26.931,16.597l42.119,25.96c6.607-35.542,13.904-75.125,16.096-88.152l-3.601-2.286
		C621.442,703.887,582.831,723.177,557.998,736.298z M536.14,741.34c22.328-12.056,60.407-31.158,82.546-42.15l-41.179-25.991
		C568.363,687.822,550.984,715.881,536.14,741.34z M565.545,838.009l30.845,43.465l13.372-29.123L565.545,838.009z M560.66,302.335
		c-6.952,8.612-12.526,15.971-15.188,19.572l50.386,0.752L560.66,302.335z M520.17,324.475l4.635,19.916l37.234-0.501
		L520.17,324.475z M512.873,680.808l21.701,23.455l16.534-19.196C544.407,684.472,526.777,682.781,512.873,680.808z
		 M609.762,852.351l-30.125-90.375l-59.279,48.757c-3.82,7.453-6.044,10.616-6.044,10.616s-0.031,0-0.063,0.031l51.294,16.628
		L609.762,852.351z M373.772,858.145l142.013,2.975l-22.202-40.052L373.772,858.145z M487.633,779.262
		c4.102,5.981,7.703,10.866,9.488,13.246l11.931-29.53L487.633,779.262z M446.078,739.492l2.411,20.292l37.046,3.633
		L446.078,739.492z M343.334,937.246l-8.298,30.219c1.409-0.47,2.818-0.908,4.29-1.346c40.302-12.369,45.469-7.797,80.198-14.718
		l-64.352-57.15L343.334,937.246z M335.035,967.465l8.298-30.219l-48.006-28.81c-3.664,1.534-7.453,3.1-11.305,4.635
		c14.812,18.758,35.417,45.031,44.405,56.461C330.557,968.843,332.75,968.154,335.035,967.465z M264.076,871.954
		c-5.605,8.706-10.083,16.159-12.213,19.791l45.501-0.532L264.076,871.954z M218.857,921.557l55.772,28.778l-2.129-46.628
		C254.212,911.067,233.982,918.363,218.857,921.557z M271.122,991.17c5.48-11.962,12.526-27.682,12.526-29.749
		c0-0.031-0.031-0.094-0.031-0.125c0,0-16.19-1.942-37.484-4.478l17.756,46.252c2.004-2.317,3.225-5.449,2.944-9.676
		C266.832,993.394,268.147,992.642,271.122,991.17z M201.947,847.529l4.603,19.916l37.265-0.47L201.947,847.529z M193.21,1062.694
		l2.599,42.432c7.422-15.47,13.215-35.636,21.106-49.352c0,0,15.845-20.48,24.52-37.797l-53.423-40.302L193.21,1062.694z
		 M133.931,1116.242c3.539,6.138,8.455,11.054,15.063,14.029c17.255,7.766,27.15-6.357,35.386-25.209l-1.91-31.315L133.931,1116.242
		z M134.87,885.545c-5.637,8.674-10.083,16.159-12.213,19.791l45.501-0.564L134.87,885.545z M283.616,961.296l-61.096-31.534
		l-72.212,14.781c0,0.438,0,0.877,0,1.315c15.156,1.44,61.972,6.921,95.824,10.96C267.426,959.354,283.616,961.296,283.616,961.296z
		 M89.307,926.349l20.95,18.131l12.401-18.131C116.801,926.474,101.488,926.724,89.307,926.349z"/>
</g>
</svg>
