<?xml version="1.0" encoding="utf-8"?>
<!-- Generator: Adobe Illustrator 23.0.3, SVG Export Plug-In . SVG Version: 6.00 Build 0)  -->
<svg version="1.1" id="Capa_1" xmlns="http://www.w3.org/2000/svg" xmlns:xlink="http://www.w3.org/1999/xlink" x="0px" y="0px"
	 viewBox="0 0 1200 1200" enable-background="new 0 0 1200 1200" xml:space="preserve">
<g>
	<path fill="#CAD6FA" d="M581.801,349.299l-58.55-60.889l23.734-12.683c12.221,8.281,24.811,17.3,36.509,26.196L581.801,349.299z
		 M470.796,229.891c-1.047-0.462-1.632-0.708-1.632-0.708s-0.123-0.092-0.308-0.277L419.45,264.06l59.35,62.213L470.796,229.891z
		 M481.201,328.89l-74.68,11.944l35.524,128.828l6.034,21.856l13.545-66.522L481.201,328.89z M334.242,327.781l-6.865,43.497
		l79.144-30.445L334.242,327.781z"/>
	<path fill="#94ACF5" d="M448.078,491.517l76.866-7.45l-61.967,60.612L448.078,491.517z M401.073,90.351l4.833-38.202
		c-5.726-3.817-12.529-2.37-16.684,2.924c-5.418-2.155-10.589-1.108-14.314,3.971c-5.941-1.816-10.928,0.339-14.191,5.695
		c-6.249-0.369-10.312,3.201-11.113,8.958c-0.646,0.123-1.262,0.308-1.847,0.493l46.236,71.786L401.073,90.351z M362.347,131.508
		l10.312,62.705h0.031l21.302-48.237L362.347,131.508z M376.077,773.337l-15.546-43.189l-64.368,14.006l-6.68,32.938l-7.419,36.632
		C291.946,810.339,343.385,792.453,376.077,773.337z M362.347,131.508l-27.151-12.406c-0.154,3.448-0.062,6.557,0.031,9.235
		c0.369,11.297-2.34,21.425-6.618,26.874c-1.139,1.416-1.97,2.832-2.524,4.187c-2.186,3.078-1.662,7.973,1.354,10.651
		c1.847,1.662,4.371,2.647,7.049,3.355L362.347,131.508z M339.137,200.555c0.739,0.246,1.077,2.77,1.293,3.417
		c3.386,9.758,10.62,13.514,20.44,14.499c3.571,0.339,7.172,0.431,10.774,0.308l-38.541-34.323c0.123,0.708,0.277,1.385,0.554,2.032
		c-1.262,1.601-1.939,3.694-1.632,6.095C332.611,196.984,335.535,199.385,339.137,200.555z M198.304,787.62l40.511,58.673v-85.639
		c-16.962,9.943-32.784,19.055-39.402,22.472C199.012,784.604,198.642,786.081,198.304,787.62z"/>
	<path fill="#AFC1F7" d="M1035.175,854.143l58.088-20.317c0.923,1.231,1.847,2.493,2.771,3.817L1073.5,899.24
		c-6.865-5.079-12.99-12.221-20.378-15.761L1035.175,854.143z M1094.864,822.867c-6.772-7.603-13.637-13.206-18.224-16.715
		c-24.165-18.47-44.174-38.479-58.119-48.668l-3.971,46.606L1094.864,822.867z M1090,778.078l-18.408-12.99l9.05,31.276
		C1083.813,790.299,1086.952,784.173,1090,778.078z M1012.149,730.118l-16.315-5.326L997.958,742L1012.149,730.118z
		 M1009.41,760.501c-2.063-1.416-4.002-2.617-5.756-3.479l-40.849,50.207l39.618,35.185l2.74-31.984L1009.41,760.501z
		 M956.555,844.446c-0.554,6.003,2.678,12.098,8.589,15.73c5.172,3.14,11.297,3.602,17.208,3.694
		c4.063,0.062,8.127-0.031,12.19-0.154l7.88-21.302l-48.914,1.201C954.523,843.892,955.539,844.169,956.555,844.446z
		 M849.152,784.573l39.249,46.483c0.77,0.123,1.508,0.246,2.278,0.4l-10.251-55.194L849.152,784.573z M833.73,782.911
		l-188.331-20.009l23.272,65.753c2.432-0.123,7.08-0.4,13.329-0.739l167.153-43.343L833.73,782.911z M636.564,737.967
		l-110.45-50.269h-0.031l51.87,89.856L636.564,737.967z M609.259,607.416c-2.37-9.666-5.695-18.932-9.727-27.859l-40.818,37.032
		L609.259,607.416z M581.801,349.299l49.315-3.725c-6.372-10.066-25.304-26.627-47.622-43.651L581.801,349.299z M512.292,610.679
		l36.447-82.807l-85.762,16.808L512.292,610.679z M542.46,431.275l53.994,10.651l-11.575-39.864l-40.603,24.473
		C543.66,428.104,543.075,429.705,542.46,431.275z M402.027,595.872l-21.918,18.408l132.183-3.602l-49.315-65.999L402.027,595.872z
		 M526.114,687.698l46.698-19.27l-40.849-38.971l-19.67-18.778l-21.086,91.026l2.032-0.431l32.846-13.575H526.114z M470.796,229.891
		l8.004,96.382l2.401,2.617l28.844,31.399c0-0.154,0-0.308,0.031-0.462c0.031,0.031,0.062,0.031,0.092,0.031l-38.818-129.72
		C471.166,230.045,470.95,229.953,470.796,229.891z M452.604,134.309h0.031v-0.031L452.604,134.309z M452.604,134.309l0.031-0.031
		v0.031l29.029-5.787c0.831-2.37,0.954-4.833,0.462-7.265l-81.052-30.906l-7.08,55.625L452.604,134.309z M448.078,491.517
		l76.866-7.45l-12.713-18.039l-59.042,23.457L448.078,491.517z M367.396,478.373l26.32,18.254l69.262,48.053l-14.899-53.163
		l-6.034-21.856l-75.788,2.155C366.626,473.971,366.996,476.156,367.396,478.373z M406.521,340.834l-50.546,64.953l86.07,63.875
		L406.521,340.834z M419.45,264.06l-41.065,12.621c-0.739,0.616-1.478,1.201-2.216,1.785l30.352,62.367L419.45,264.06z
		 M452.604,134.309l-79.913,59.904h-0.031l4.002,24.257c2.093-0.185,4.156-0.4,6.218-0.708l22.225-26.597L452.604,134.309z
		 M334.489,173.404c0.123,0.031,0.246,0.062,0.369,0.092c0.677,3.386-1.97,5.818-1.878,9.974c0,0.339,0.092,0.646,0.123,0.985
		l38.541,34.323c1.662-0.062,3.355-0.185,5.018-0.308l-4.002-24.257l-10.312-62.705L334.489,173.404z M360.531,730.148
		l130.182-28.32L380.109,614.28l-83.946,129.874L360.531,730.148z M325.469,373.064l-12.313-13.237l-6.895,33.985l-9.081,44.605
		c1.939,0.031,4.033-0.246,6.249-0.739l39.002-46.421L325.469,373.064z M267.812,299.83c-1.909-2.647-3.725-5.202-5.418-7.634
		l-1.416,1.077l-33.277,25.335c0.739,1.601,1.478,3.232,2.216,4.895l39.464-1.632L267.812,299.83z M216.866,214.038l-25.981,24.473
		c0.493,1.139,0.862,2.247,1.016,3.14c0.031,0.123,0.062,0.308,0.092,0.462l54.948,4.187h0.215
		c-0.031-4.033-0.154-12.652-0.185-21.056c-0.154,0.431-0.154,0.462-0.154,0.462s-8.188-12.467-11.698-22.995
		c-0.585-1.785-0.985-3.294-1.324-4.617L216.866,214.038z M238.814,846.293l50.669-69.201l6.68-32.938V726.67
		c0,0-30.168,18.039-57.349,33.985V846.293z M212.187,909.86l-30.937,73.941c-0.369,4.187-0.739,8.188-1.108,12.098l47.191,32.815
		l1.508-24.042l9.974-158.379L212.187,909.86z M177.094,1096.807v0.031h-0.031l-35.801,48.514c0.031,0,0.031,0,0.031,0l92.38-48.514
		h0.031l-2.709-28.782l-3.663-39.341L177.094,1096.807z"/>
	<path fill="#7A98F2" d="M1098.773,900.102c-7.049,1.909-12.775-0.092-17.977-3.509l22.133-60.551
		c6.064,9.42,10.99,20.779,12.467,34.108C1116.966,884.218,1114.688,895.793,1098.773,900.102z M1093.263,833.826
		c-0.923-1.201-1.816-2.34-2.74-3.448l-85.362-19.947l30.014,43.712L1093.263,833.826z M1090.308,742.708
		c-6.126-4.125-12.129-8.004-17.854-11.636l-1.17,21.825L1090.308,742.708z M1051.552,777.154l9.82-15.669l-17.146-0.031
		L1051.552,777.154z M1050.105,745.725c-0.616-9.112-2.001-17.977-3.971-26.566l-36.016,29.644L1050.105,745.725z M962.804,807.229
		l-9.297,36.386l48.914-1.201L962.804,807.229z M1002.422,842.415l-7.88,21.302c1.447-0.031,2.863-0.062,4.31-0.123
		c1.816,1.047,3.632,2.062,5.479,3.048l30.845-12.498l-30.014-43.712L1002.422,842.415z M880.428,776.262l10.251,55.194
		c4.002,0.677,7.973,1.385,11.882,2.093l60.243-26.32L880.428,776.262z M931.928,782.48l30.876,24.75l40.849-50.207
		c-1.785-0.862-3.448-1.478-4.895-1.724c-12.652-1.939-23.334,15.576-23.334,15.576s-8.773,10.682-18.501,10.682
		c-9.697,0-22.349,1.939-22.349,1.939S933.621,783.126,931.928,782.48z M864.883,834.38c7.48,1.17,15.361,2.463,23.241,3.817
		l-30.075-35.647L864.883,834.38z M828.959,746.402l4.771,36.509l15.422,1.662l31.276-8.311l-29.121-22.81
		C843.704,750.927,836.162,748.557,828.959,746.402z M707.396,697.888l-22.072-4.679l20.717,25.15
		C706.534,711.555,706.996,704.691,707.396,697.888z M699.885,738.952h-0.062l-54.425,23.949l188.331,20.009L699.885,738.952z
		 M700.131,728.701c-11.667-9.851-29.244-30.875-45.59-50.854l-5.941,53.132L700.131,728.701z M698.376,638.076l-32.938-8.681
		c-4.648,6.434-9.604,13.206-14.591,19.917L698.376,638.076z M632.5,749.295l-55.502,37.494
		c32.384,25.211,66.03,47.406,86.378,49.684L632.5,749.295z M657.773,602.952l-22.041-4.679l20.686,25.181
		C656.911,616.62,657.373,609.755,657.773,602.952z M618.894,421.455c14.068-28.721,25.027-55.071,22.533-64.183
		c-0.185-0.646-0.492-1.354-0.831-2.093l-47.221,3.571L618.894,421.455z M636.749,663.595
		c-8.835-10.836-16.592-20.255-21.425-25.088c-1.293-1.293-2.524-2.555-3.694-3.848l-2.37,38.079L636.749,663.595z M561.668,385.254
		c-0.031,0.092-0.092,0.215-0.154,0.308l23.364,16.5l23.518,16.592c0.308-0.616,0.616-1.201,0.893-1.816l-27.489-67.538
		l-22.687,34.569C559.975,384.33,560.837,384.823,561.668,385.254z M596.484,441.925c4.033-7.665,8.065-15.515,11.913-23.272
		l-23.518-16.592l11.575,39.864H596.484z M603.349,633.643c-1.508-1.724-2.955-3.417-4.34-5.11c-0.369-2.309-0.8-4.587-1.293-6.865
		l-24.904,46.76l27.366,15.915L603.349,633.643z M600.178,684.343l-27.366-15.915l-46.698,19.27l110.45,50.269L600.178,684.343z
		 M596.453,441.925v0.031l0.031-0.031H596.453z M592.852,576.879c-8.558-17.762-19.763-34.231-32.63-49.53l-15.361,93.088
		L592.852,576.879z M581.801,349.299l-58.55-60.889l-10.959,69.447L581.801,349.299z M581.339,173.096
		c-6.126-4.125-12.129-8.034-17.854-11.636l-1.17,21.825L581.339,173.096z M581.339,473.386l-37.34-13.698l0.954,39.556
		l33.615-23.888L581.339,473.386z M548.093,269.694c-6.126-4.125-12.129-8.034-17.854-11.636l-1.17,21.825L548.093,269.694z
		 M546.646,171.649l-18.408-13.021l9.081,31.306C540.459,183.87,543.599,177.744,546.646,171.649z M578.568,475.356l-33.615,23.888
		l-0.954-39.556l-1.016-4.033l-4.987,1.293l0.523,2.093l0.554,50.977l9.666,17.854c4.433-6.064,9.297-13.483,13.144-21.456
		C564.316,501.399,570.657,489.947,578.568,475.356z M548.739,527.872l-9.666-17.854l-2.678-4.895l-11.451-21.056l-61.967,60.612
		L548.739,527.872z M542.983,455.655l53.47-13.698v-0.031l-53.994-10.651c-2.586,6.834-5.079,13.637-7.388,20.194
		c-0.646,1.909-1.293,3.756-1.909,5.603c-0.123,0.339-0.216,0.677-0.339,0.985l0.339,0.123l1.785-0.462l0.277-0.062l2.771-0.708
		L542.983,455.655z M518.51,118.671c-6.126-4.125-12.129-8.034-17.885-11.636l-1.139,21.825L518.51,118.671z M490.344,212.929
		c5.572-1.17,9.974-5.572,11.667-10.866c6.711,0.431,13.483-3.386,15.392-10.436c1.17-4.156,0.554-7.819-1.139-10.866
		c6.095-9.266-0.431-24.811-10.62-27.274l-25.057,58.088C483.51,213.053,486.865,213.637,490.344,212.929z M511.892,360.442
		l0.4-2.586l10.959-69.447l-49.592-57.195c-0.923-0.431-1.662-0.8-2.309-1.077l38.818,129.72
		C510.722,360.042,511.307,360.258,511.892,360.442z M512.231,466.029c-0.123-0.616-45.805-36.293-45.805-36.293l-13.237,59.75
		L512.231,466.029z M481.201,328.89l-19.578,96.105l48.053-59.042c0.123-2.001,0.246-3.879,0.369-5.664L481.201,328.89z
		 M490.713,701.828l0.493-0.123l21.086-91.026l-132.183,3.602L490.713,701.828z M481.201,328.89l-2.401-2.617l-59.35-62.213
		l-12.929,76.773L481.201,328.89z M454.82,201.232l1.201,0.215l0.8,0.185l13.545,2.74c1.939-0.431,3.756-1.262,5.356-2.493
		l-23.087-67.569h-0.031l-47.498,56.857L454.82,201.232z M393.715,496.627l8.311,99.245l60.951-51.192L393.715,496.627z
		 M452.604,134.309l-58.611,11.667l-21.302,48.237L452.604,134.309z M366.257,471.816l75.788-2.155l-86.07-63.875l5.018,35.124
		C360.993,440.91,363.332,455.039,366.257,471.816z M405.906,52.149l-4.833,38.202l58.396-15.915
		c-1.878-5.264-5.726-8.25-11.174-9.358c-2.555-6.772-8.281-8.835-14.314-6.434c-3.909-4.371-9.358-5.541-14.314-3.078
		c-3.017-3.756-7.696-4.895-12.683-2.709C406.644,52.58,406.275,52.395,405.906,52.149z M377.893,547.389
		c0.431,20.656-0.862,44.174-0.092,51.87l2.309,15.022l21.918-18.408L377.893,547.389z M419.45,264.06l23.734-59.719v-0.031
		l-60.304,13.452c2.34-0.308,4.648-0.677,6.926-1.108c1.324,1.447,2.37,3.294,3.232,5.141L419.45,264.06z M376.169,278.467
		c-8.435,6.803-16.561,13.237-30.383,30.722c0,0-5.079,8.342-11.544,18.593l72.279,13.052L376.169,278.467z M374.384,610.156
		c-9.235,4.556-35.493,18.962-72.648,51.562v60.797L374.384,610.156z M355.975,405.786l-13.545-14.53l-39.002,46.421
		C324.484,432.844,355.975,405.786,355.975,405.786z M343.754,90.597c-6.464,10.158-8.219,20.255-8.558,28.505l27.151,12.406
		l31.645,14.468L347.756,74.19C340.861,76.468,336.982,83.086,343.754,90.597z M331.626,304.479l-26.843-21.025
		c-6.803,4.094-14.006,8.342-21.271,12.56L331.626,304.479z M313.156,359.827l-39.526,22.01l-12.467,6.926
		c0.462,0.862,0.923,1.724,1.354,2.586l43.743,2.463L313.156,359.827z M311.432,349.545c-4.741-6.095-22.256-28.69-36.047-47.622
		l1.139,15.915c0,0.062,0,0.092,0,0.154l3.479,49.038L311.432,349.545z M311.186,1068.578c-22.626,3.694-32.384,5.202-36.663,5.787
		l36.663,14.961V1068.578z M296.164,673.323h-0.031l-57.318,87.332c27.182-15.946,57.349-33.985,57.349-33.985V673.323z
		 M298.811,1124.481l-36.601,0.523l22.718,11.698C289.36,1132.761,294.07,1128.606,298.811,1124.481z M289.761,843.646V826.53
		l-38.448,22.256l28.105,52.762C283.943,877.6,287.79,856.482,289.761,843.646z M261.748,1036.564l9.204,23.826
		c5.941,0,12.221,0.031,18.501,0.123L261.748,1036.564z M273.63,381.837l-4.248-59.966l-39.464,1.632
		c8.989,20.071,20.286,44.266,31.245,65.26L273.63,381.837z M252.544,214.007c0,8.034,0.092,18.162,0.185,26.474l14.899-7.019
		c0-9.666,1.17-16.654,2.34-21.671c1.17-5.079,5.048-12.867,0.77-15.576c-4.279-2.74-14.499,6.988-17.577,15.946
		C252.944,212.837,252.728,213.453,252.544,214.007z M269.29,903.581l-30.475-57.287l-9.974,158.379L269.29,903.581z
		 M261.686,1096.129c-0.062-0.4-0.092-0.8-0.154-1.2c-1.693-8.835-4.771-16.869-6.095-25.827c0.431-3.109,1.108-6.187,1.662-9.297
		c0.708-3.971,1.816-8.373,0.277-12.282c-0.708-1.847-1.816-3.232-3.14-4.187l-13.483,29.059l22.933,36.016
		C263.841,1103.887,263.379,1099.516,261.686,1096.129z M191.993,242.112c0.708,3.848,4.002,17.3,9.851,27.92l45.344-21.394
		c0,0,0-0.862-0.031-2.34h-0.215L191.993,242.112z M235.151,1139.78l-3.232-34.631L146.527,1150
		C175.401,1149.538,212.71,1146.091,235.151,1139.78z M201.844,270.032c2.74,4.987,6.064,9.327,9.912,11.728
		c0,0,6.464,15.546,15.946,36.847l33.277-25.335L201.844,270.032z M218.374,191.751c-0.585-0.585-6.434-6.772-10.897-3.048
		c-4.648,3.879-3.109,6.218-3.109,6.218s-5.849-0.77-9.327,1.57c-0.77,0.493-1.385,1.324-1.847,2.247l23.672,15.299l16.931-15.946
		c-1.539-6.464-0.554-8.034-4.125-10.959c-4.279-3.509-6.618-5.849-9.327-2.709C217.759,187.349,218.313,191.289,218.374,191.751z
		 M198.304,787.62c-0.369,1.724-0.708,3.571-1.016,5.449l14.899,116.791l26.627-63.567L198.304,787.62z M176.54,1030.869
		c-5.787,0.092-10.805,5.325-11.852,12.19c-0.523,3.448-0.523,7.019-0.369,10.651c-0.462,0.369-0.923,0.77-1.416,1.17l14.191,41.927
		l50.238-68.092l-47.191-32.815C178.787,1010.121,177.556,1022.281,176.54,1030.869z M177.063,1096.837l-55.748-4.31l19.947,52.824
		L177.063,1096.837z"/>
	<path fill="#5B72B6" d="M1004.33,866.641l30.845-12.498l17.947,29.336c-0.616-0.277-1.231-0.585-1.847-0.831
		c-10.189-3.879-21.364-4.956-31.614-8.958C1014.366,871.659,1009.286,869.257,1004.33,866.641z M902.561,833.549
		c20.779,3.756,39.279,7.388,47.56,9.266c1.17,0.246,2.278,0.523,3.386,0.8l9.297-36.386L902.561,833.549z M962.804,807.229
		l-30.876-24.75c-9.82-3.817-45.836-17.577-80.621-29.029l29.121,22.81L962.804,807.229z M858.049,826.069l-8.896-41.496
		L682,827.916c34.908-1.939,119.039-6.495,135.908-6.495C825.203,821.42,840.348,823.329,858.049,826.069z M714.784,666.858
		c-7.265-1.354-14.314-2.586-20.994-3.632l7.542,20.502L714.784,666.858z M699.885,738.952l133.845,43.958l-4.771-36.509
		c-16.808-5.048-31.799-8.773-41.188-9.574c-34.6-2.863-71.048,6.557-87.855,2.093L699.885,738.952z M699.823,738.952l-0.523-0.185
		c-1.601-0.462-3.602-1.631-5.849-3.294l-56.887,2.493l8.835,24.934L699.823,738.952z M677.906,683.543l4.371-28.29l-24.38,10.466
		L677.906,683.543z M643.305,624.716c-7.265-1.354-14.314-2.586-20.994-3.632l7.542,20.502L643.305,624.716z M636.749,672.153
		l-36.57,12.19l36.386,53.624l6.526-58.057C640.935,677.294,638.811,674.677,636.749,672.153z M595.16,473.14l1.693-1.231
		c4.31-7.88,8.958-16.531,13.668-25.488l-0.062-0.185l-52.147,13.36L595.16,473.14z M597.715,621.668
		c-0.277-1.354-0.585-2.678-0.893-4.002l-64.86,11.79l40.849,38.971L597.715,621.668z M585.741,136.833h-17.177l7.357,15.699
		L585.741,136.833z M584.879,402.061l-23.364-16.5c-4.956,10.435-11.236,25.396-17.239,40.972L584.879,402.061z M534.672,126.521
		c-6.803,4.094-14.037,8.342-21.271,12.529l48.114,8.465L534.672,126.521z M547.477,548.866l-25.889,58.888l13.976,13.329
		L547.477,548.866z M544.245,210.99c-6.126-4.125-12.129-8.034-17.854-11.636l-1.17,21.825L544.245,210.99z M539.073,510.018
		l-0.554-50.977l-0.523-2.093l-2.771,0.708l-0.277,0.062l-1.785,0.462l-0.339-0.123c-3.417,10.097-6.249,19.209-7.88,26.012
		l11.451,21.056L539.073,510.018z M511.892,360.442c13.545,4.648,32.969,15.607,47.221,23.426l22.687-34.569l-69.508,8.558
		L511.892,360.442z M513.677,457.071c-2.709-22.687-1.324-62.09,0.216-88.225l-44.482,54.702L513.677,457.071z M526.083,687.698
		l-32.846,13.575l-2.124,0.893c0,0,41.927,40.234,86.839,75.388L526.083,687.698z M395.162,759.977
		c27.736-25.458,95.951-57.811,95.951-57.811l-0.4-0.339l-130.182,28.32l15.546,43.189
		C383.711,768.904,390.329,764.379,395.162,759.977z M486.681,115.562c2.863-5.325,0.431-8.404-1.97-13.083
		c1.478-2.617,2.062-5.603,0.923-8.896c-1.416-4.248-5.387-6.618-9.512-6.834c-0.4-4.31-2.678-7.419-6.711-8.989l-50.207,13.699
		l68.462,26.104C487.389,116.886,487.05,116.24,486.681,115.562z M488.835,135.11c-2.555-0.339-5.018-0.062-7.357,0.616
		c-0.462-1.17-1.047-2.34-1.785-3.509c0.862-1.201,1.508-2.432,1.97-3.694l-29.029,5.787l23.087,67.569
		c0.277-0.215,0.585-0.431,0.862-0.677c0.554,0.523,1.17,0.985,1.785,1.416l24.719-57.195c-0.369-0.031-0.739-0.062-1.108-0.031
		C499.887,139.973,494.9,135.879,488.835,135.11z M522.666,255.256c-5.264-3.232-10.251-6.218-14.807-8.742
		c-11.728-8.096-21.764-13.699-28.659-17.239l42.265,48.761L522.666,255.256z M443.184,204.341L419.45,264.06l49.407-35.154
		c-1.97-1.816-13.575-13.021-14.037-27.182l-11.636,2.586V204.341z M406.521,340.834l-79.144,30.445l-1.909,1.785l16.962,18.193
		l13.545,14.53L406.521,340.834z M419.45,264.06l-26.412-42.265c1.724,3.756,2.524,7.388,2.524,7.388s1.632,30.598-8.158,39.741
		c-3.263,3.017-6.187,5.449-9.019,7.757L419.45,264.06z M377.893,547.389l24.134,48.484l-8.311-99.245l-26.32-18.254
		c2.832,16.161,6.003,33.369,8.096,42.265C377.031,527.226,377.677,536.953,377.893,547.389z M454.82,201.724
		c0-0.154,0-0.339,0-0.493l-49.715-10.066l-22.225,26.597l60.304-13.452L454.82,201.724z M313.156,359.827l12.313,13.237
		l1.909-1.785l6.865-43.497C327.255,338.925,318.635,352.346,313.156,359.827z M312.017,313.313l-20.933-8.373l16.069,28.32
		C308.815,326.642,310.447,319.963,312.017,313.313z M308.6,1110.844l-12.806-11.39l-4.925,16.623L308.6,1110.844z M297.179,438.416
		l9.081-44.605l-43.743-2.463c13.822,26.166,26.997,46.79,34.323,47.067C296.964,438.416,297.056,438.416,297.179,438.416z
		 M305.706,1036.564H288.56l7.326,15.699L305.706,1036.564z M280.341,822.252v-7.942c0,0,0.616-0.215,1.724-0.585l7.419-36.632
		l-50.669,69.201L280.341,822.252z M287.729,275.173c-6.126-4.094-12.129-8.004-17.854-11.636l-1.17,21.825L287.729,275.173z
		 M283.819,1088.403h-17.146l7.326,15.699L283.819,1088.403z M245.125,1037.672c-0.677-0.277-1.385-0.493-2.124-0.646
		c5.141-25.427,17.023-84.654,26.289-133.445l-40.449,101.092l-1.508,24.042l3.663,39.341L245.125,1037.672z M264.057,240.696
		l-16.869,7.942l-45.344,21.394l59.134,23.241l1.416-1.077c-7.48-10.62-12.683-18.747-12.467-20.563
		C250.635,265.907,262.179,250.7,264.057,240.696z M239.276,1098.223l3.448,37.063c5.479-1.816,9.758-3.817,12.344-6.064
		c0,0,2.709-7.511,4.094-16.253l-21.702-34.016L239.276,1098.223z M296.133,673.323c-8.158,7.234-16.777,15.268-25.858,24.196
		c-48.822,48.176-64.552,63.013-70.863,85.608c6.618-3.417,22.441-12.529,39.402-22.472L296.133,673.323z M195.133,813.14
		c-2.216,29.398-8.619,112.512-13.883,170.662l30.937-73.941l-14.899-116.791C196.334,798.887,195.718,805.413,195.133,813.14z
		 M191.531,207.296c0,0-5.849-3.232-8.958,0c-3.109,3.201-2.74,15.669,0,18.408c2.186,2.186,6.341,8.127,8.311,12.806l25.981-24.473
		l-23.672-15.299C191.531,202.125,191.531,207.296,191.531,207.296z M177.063,1096.837h0.031v-0.031L177.063,1096.837z
		 M121.315,1092.497v0.031l55.748,4.31l0.031-0.031l-14.191-41.927c-11.728,9.604-29.029,22.995-35.986,32.292
		C125.378,1089.203,123.439,1090.927,121.315,1092.497z M113.034,1143.813c6.434,1.077,16.469,1.57,28.228,1.539l-19.947-52.824
		v-0.031c-12.467,9.05-33.061,11.236-36.016,20.101C81.82,1123.003,85.299,1139.195,113.034,1143.813z"/>
</g>
</svg>
